<mxfile host="Electron" modified="2023-05-15T04:16:23.484Z" agent="Mozilla/5.0 (Macintosh; Intel Mac OS X 10_15_7) AppleWebKit/537.36 (KHTML, like Gecko) draw.io/21.2.8 Chrome/112.0.5615.165 Electron/24.2.0 Safari/537.36" etag="b9NoXCWsZFoUdNEVx6EK" version="21.2.8" type="device">
  <diagram name="페이지-1" id="qdvttQF-JMNNIV03gGV9">
    <mxGraphModel dx="954" dy="674" grid="1" gridSize="10" guides="1" tooltips="1" connect="1" arrows="1" fold="1" page="1" pageScale="1" pageWidth="827" pageHeight="1169" math="0" shadow="0">
      <root>
        <mxCell id="0" />
        <mxCell id="1" parent="0" />
        <mxCell id="nFj98c4Tj1_9NBn33qxE-26" value="image" style="edgeStyle=orthogonalEdgeStyle;rounded=0;orthogonalLoop=1;jettySize=auto;html=1;entryX=0.5;entryY=0;entryDx=0;entryDy=0;" parent="1" source="nFj98c4Tj1_9NBn33qxE-23" target="nFj98c4Tj1_9NBn33qxE-25" edge="1">
          <mxGeometry relative="1" as="geometry" />
        </mxCell>
        <mxCell id="nFj98c4Tj1_9NBn33qxE-23" value="cam1" style="rounded=0;whiteSpace=wrap;html=1;" parent="1" vertex="1">
          <mxGeometry x="80" y="40" width="120" height="60" as="geometry" />
        </mxCell>
        <mxCell id="nFj98c4Tj1_9NBn33qxE-27" value="image" style="edgeStyle=orthogonalEdgeStyle;rounded=0;orthogonalLoop=1;jettySize=auto;html=1;" parent="1" source="nFj98c4Tj1_9NBn33qxE-24" target="nFj98c4Tj1_9NBn33qxE-25" edge="1">
          <mxGeometry relative="1" as="geometry" />
        </mxCell>
        <mxCell id="nFj98c4Tj1_9NBn33qxE-24" value="cam2" style="rounded=0;whiteSpace=wrap;html=1;" parent="1" vertex="1">
          <mxGeometry x="280" y="40" width="120" height="60" as="geometry" />
        </mxCell>
        <mxCell id="nFj98c4Tj1_9NBn33qxE-43" style="edgeStyle=orthogonalEdgeStyle;rounded=0;orthogonalLoop=1;jettySize=auto;html=1;entryX=0.5;entryY=0;entryDx=0;entryDy=0;" parent="1" source="nFj98c4Tj1_9NBn33qxE-25" edge="1">
          <mxGeometry relative="1" as="geometry">
            <mxPoint x="240" y="250" as="targetPoint" />
          </mxGeometry>
        </mxCell>
        <mxCell id="nFj98c4Tj1_9NBn33qxE-25" value="openCV" style="rounded=0;whiteSpace=wrap;html=1;" parent="1" vertex="1">
          <mxGeometry x="180" y="150" width="120" height="60" as="geometry" />
        </mxCell>
        <mxCell id="nFj98c4Tj1_9NBn33qxE-32" style="edgeStyle=orthogonalEdgeStyle;rounded=0;orthogonalLoop=1;jettySize=auto;html=1;entryX=0.5;entryY=0;entryDx=0;entryDy=0;" parent="1" source="nFj98c4Tj1_9NBn33qxE-29" target="nFj98c4Tj1_9NBn33qxE-31" edge="1">
          <mxGeometry relative="1" as="geometry" />
        </mxCell>
        <mxCell id="nFj98c4Tj1_9NBn33qxE-29" value="6-axis&lt;br&gt;acc-gyro&lt;br&gt;sensor" style="rounded=0;whiteSpace=wrap;html=1;" parent="1" vertex="1">
          <mxGeometry x="480" y="40" width="120" height="60" as="geometry" />
        </mxCell>
        <mxCell id="nFj98c4Tj1_9NBn33qxE-48" style="edgeStyle=orthogonalEdgeStyle;rounded=0;orthogonalLoop=1;jettySize=auto;html=1;" parent="1" source="nFj98c4Tj1_9NBn33qxE-31" target="nFj98c4Tj1_9NBn33qxE-46" edge="1">
          <mxGeometry relative="1" as="geometry" />
        </mxCell>
        <mxCell id="nFj98c4Tj1_9NBn33qxE-31" value="Digital&lt;br&gt;Motion&lt;br&gt;Processor" style="rounded=0;whiteSpace=wrap;html=1;" parent="1" vertex="1">
          <mxGeometry x="480" y="150" width="120" height="60" as="geometry" />
        </mxCell>
        <mxCell id="nFj98c4Tj1_9NBn33qxE-44" value="info_cam" style="swimlane;childLayout=stackLayout;horizontal=1;startSize=50;horizontalStack=0;rounded=1;fontSize=14;fontStyle=0;strokeWidth=2;resizeParent=0;resizeLast=1;shadow=0;dashed=0;align=center;arcSize=4;whiteSpace=wrap;html=1;" parent="1" vertex="1">
          <mxGeometry x="160" y="250" width="160" height="120" as="geometry" />
        </mxCell>
        <mxCell id="nFj98c4Tj1_9NBn33qxE-45" value="Rel Target Yaw&lt;br&gt;Rel Target Roll&lt;br&gt;Rel Target Pitch&lt;br&gt;Rel Target X, Y, Z" style="align=left;strokeColor=none;fillColor=none;spacingLeft=4;fontSize=12;verticalAlign=top;resizable=0;rotatable=0;part=1;html=1;" parent="nFj98c4Tj1_9NBn33qxE-44" vertex="1">
          <mxGeometry y="50" width="160" height="70" as="geometry" />
        </mxCell>
        <mxCell id="nFj98c4Tj1_9NBn33qxE-46" value="info_gyro" style="swimlane;childLayout=stackLayout;horizontal=1;startSize=50;horizontalStack=0;rounded=1;fontSize=14;fontStyle=0;strokeWidth=2;resizeParent=0;resizeLast=1;shadow=0;dashed=0;align=center;arcSize=4;whiteSpace=wrap;html=1;" parent="1" vertex="1">
          <mxGeometry x="460" y="250" width="160" height="120" as="geometry" />
        </mxCell>
        <mxCell id="nFj98c4Tj1_9NBn33qxE-47" value="Yaw&lt;br&gt;Roll&lt;br&gt;Pitch" style="align=left;strokeColor=none;fillColor=none;spacingLeft=4;fontSize=12;verticalAlign=top;resizable=0;rotatable=0;part=1;html=1;" parent="nFj98c4Tj1_9NBn33qxE-46" vertex="1">
          <mxGeometry y="50" width="160" height="70" as="geometry" />
        </mxCell>
        <mxCell id="nFj98c4Tj1_9NBn33qxE-59" value="info_comb" style="swimlane;childLayout=stackLayout;horizontal=1;startSize=50;horizontalStack=0;rounded=1;fontSize=14;fontStyle=0;strokeWidth=2;resizeParent=0;resizeLast=1;shadow=0;dashed=0;align=center;arcSize=4;whiteSpace=wrap;html=1;" parent="1" vertex="1">
          <mxGeometry x="310" y="420" width="160" height="120" as="geometry" />
        </mxCell>
        <mxCell id="nFj98c4Tj1_9NBn33qxE-60" value="Abs Roll&lt;br&gt;Abs Pitch&lt;br&gt;Distane&lt;br&gt;X, Y, Z in Horizontal" style="align=left;strokeColor=none;fillColor=none;spacingLeft=4;fontSize=12;verticalAlign=top;resizable=0;rotatable=0;part=1;html=1;" parent="nFj98c4Tj1_9NBn33qxE-59" vertex="1">
          <mxGeometry y="50" width="160" height="70" as="geometry" />
        </mxCell>
        <mxCell id="nFj98c4Tj1_9NBn33qxE-61" style="edgeStyle=orthogonalEdgeStyle;rounded=0;orthogonalLoop=1;jettySize=auto;html=1;exitX=1;exitY=0.25;exitDx=0;exitDy=0;entryX=0.5;entryY=0;entryDx=0;entryDy=0;" parent="1" source="nFj98c4Tj1_9NBn33qxE-45" target="nFj98c4Tj1_9NBn33qxE-59" edge="1">
          <mxGeometry relative="1" as="geometry" />
        </mxCell>
        <mxCell id="nFj98c4Tj1_9NBn33qxE-62" style="edgeStyle=orthogonalEdgeStyle;rounded=0;orthogonalLoop=1;jettySize=auto;html=1;exitX=0;exitY=0.25;exitDx=0;exitDy=0;" parent="1" source="nFj98c4Tj1_9NBn33qxE-47" target="nFj98c4Tj1_9NBn33qxE-59" edge="1">
          <mxGeometry relative="1" as="geometry" />
        </mxCell>
        <mxCell id="nFj98c4Tj1_9NBn33qxE-72" style="edgeStyle=orthogonalEdgeStyle;rounded=0;orthogonalLoop=1;jettySize=auto;html=1;exitX=0.5;exitY=1;exitDx=0;exitDy=0;entryX=0.5;entryY=0;entryDx=0;entryDy=0;" parent="1" source="nFj98c4Tj1_9NBn33qxE-63" target="nFj98c4Tj1_9NBn33qxE-69" edge="1">
          <mxGeometry relative="1" as="geometry" />
        </mxCell>
        <mxCell id="nFj98c4Tj1_9NBn33qxE-63" value="Controller" style="rounded=0;whiteSpace=wrap;html=1;" parent="1" vertex="1">
          <mxGeometry x="330" y="640" width="120" height="60" as="geometry" />
        </mxCell>
        <mxCell id="nFj98c4Tj1_9NBn33qxE-64" style="edgeStyle=orthogonalEdgeStyle;rounded=0;orthogonalLoop=1;jettySize=auto;html=1;exitX=0.5;exitY=1;exitDx=0;exitDy=0;entryX=0;entryY=0.5;entryDx=0;entryDy=0;" parent="1" source="nFj98c4Tj1_9NBn33qxE-45" target="nFj98c4Tj1_9NBn33qxE-63" edge="1">
          <mxGeometry relative="1" as="geometry" />
        </mxCell>
        <mxCell id="nFj98c4Tj1_9NBn33qxE-65" style="edgeStyle=orthogonalEdgeStyle;rounded=0;orthogonalLoop=1;jettySize=auto;html=1;exitX=0.5;exitY=1;exitDx=0;exitDy=0;entryX=0.5;entryY=0;entryDx=0;entryDy=0;" parent="1" source="nFj98c4Tj1_9NBn33qxE-60" target="nFj98c4Tj1_9NBn33qxE-63" edge="1">
          <mxGeometry relative="1" as="geometry" />
        </mxCell>
        <mxCell id="nFj98c4Tj1_9NBn33qxE-66" style="edgeStyle=orthogonalEdgeStyle;rounded=0;orthogonalLoop=1;jettySize=auto;html=1;exitX=0.5;exitY=1;exitDx=0;exitDy=0;entryX=1;entryY=0.5;entryDx=0;entryDy=0;" parent="1" source="nFj98c4Tj1_9NBn33qxE-47" target="nFj98c4Tj1_9NBn33qxE-63" edge="1">
          <mxGeometry relative="1" as="geometry" />
        </mxCell>
        <mxCell id="nFj98c4Tj1_9NBn33qxE-69" value="Signals" style="swimlane;childLayout=stackLayout;horizontal=1;startSize=50;horizontalStack=0;rounded=1;fontSize=14;fontStyle=0;strokeWidth=2;resizeParent=0;resizeLast=1;shadow=0;dashed=0;align=center;arcSize=4;whiteSpace=wrap;html=1;" parent="1" vertex="1">
          <mxGeometry x="310" y="750" width="160" height="120" as="geometry" />
        </mxCell>
        <mxCell id="nFj98c4Tj1_9NBn33qxE-70" value="Throttle&lt;br&gt;Roll&lt;br&gt;Pitch&lt;br&gt;Yaw" style="align=left;strokeColor=none;fillColor=none;spacingLeft=4;fontSize=12;verticalAlign=top;resizable=0;rotatable=0;part=1;html=1;" parent="nFj98c4Tj1_9NBn33qxE-69" vertex="1">
          <mxGeometry y="50" width="160" height="70" as="geometry" />
        </mxCell>
        <mxCell id="nFj98c4Tj1_9NBn33qxE-73" value="RF Transmitter" style="rounded=0;whiteSpace=wrap;html=1;" parent="1" vertex="1">
          <mxGeometry x="330" y="910" width="120" height="60" as="geometry" />
        </mxCell>
        <mxCell id="nFj98c4Tj1_9NBn33qxE-74" style="edgeStyle=orthogonalEdgeStyle;rounded=0;orthogonalLoop=1;jettySize=auto;html=1;exitX=0.5;exitY=1;exitDx=0;exitDy=0;entryX=0.5;entryY=0;entryDx=0;entryDy=0;" parent="1" source="nFj98c4Tj1_9NBn33qxE-70" target="nFj98c4Tj1_9NBn33qxE-73" edge="1">
          <mxGeometry relative="1" as="geometry" />
        </mxCell>
      </root>
    </mxGraphModel>
  </diagram>
</mxfile>
